<svg height="682.66669pt" viewBox="-21 -21 682.66669 682.66669" width="682.66669pt" xmlns="http://www.w3.org/2000/svg"><path d="m522.117188 0v37.242188h54.164062l-324.695312 323.953124h-123.925782v37.242188h86.601563l-23.4375 23.382812h-77.875l-112.949219 110.464844h80.113281l-73.980469 73.8125 26.390626 26.332032 73.980468-73.8125v81.382812l110.746094-112.679688v-79.195312l23.4375-23.382812v85.601562h37.324219v-122.84375l324.660156-323.925781v59.359375h37.328125v-122.933594zm0 0"/><path d="m542.9375 313.949219h33.34375l-232.734375 232.207031h-72.835937v37.242188h35.503906l-22.746094 22.699218 26.394531 26.332032 22.792969-22.742188v27.503906h37.328125v-64.746094l232.6875-232.164062v36.132812h37.328125v-99.703124h-97.0625zm0 0"/></svg>