<?xml version="1.0" encoding="UTF-8" standalone="no"?>
<svg
   xmlns:dc="http://purl.org/dc/elements/1.1/"
   xmlns:cc="http://creativecommons.org/ns#"
   xmlns:rdf="http://www.w3.org/1999/02/22-rdf-syntax-ns#"
   xmlns:svg="http://www.w3.org/2000/svg"
   xmlns="http://www.w3.org/2000/svg"
   xmlns:sodipodi="http://sodipodi.sourceforge.net/DTD/sodipodi-0.dtd"
   xmlns:inkscape="http://www.inkscape.org/namespaces/inkscape"
   height="682.66669pt"
   viewBox="-21 -21 682.66669 682.66669"
   width="682.66669pt"
   version="1.1"
   id="svg4534"
   sodipodi:docname="arrows-white.svg"
   inkscape:version="0.92.3 (2405546, 2018-03-11)">
  <metadata
     id="metadata4540">
    <rdf:RDF>
      <cc:Work
         rdf:about="">
        <dc:format>image/svg+xml</dc:format>
        <dc:type
           rdf:resource="http://purl.org/dc/dcmitype/StillImage" />
        <dc:title></dc:title>
      </cc:Work>
    </rdf:RDF>
  </metadata>
  <defs
     id="defs4538" />
  <sodipodi:namedview
     pagecolor="#ffffff"
     bordercolor="#666666"
     borderopacity="1"
     objecttolerance="10"
     gridtolerance="10"
     guidetolerance="10"
     inkscape:pageopacity="0"
     inkscape:pageshadow="2"
     inkscape:window-width="1920"
     inkscape:window-height="1017"
     id="namedview4536"
     showgrid="false"
     inkscape:zoom="0.9316406"
     inkscape:cx="455.11112"
     inkscape:cy="455.11112"
     inkscape:window-x="-8"
     inkscape:window-y="-8"
     inkscape:window-maximized="1"
     inkscape:current-layer="svg4534" />
  <path
     d="m522.117188 0v37.242188h54.164062l-324.695312 323.953124h-123.925782v37.242188h86.601563l-23.4375 23.382812h-77.875l-112.949219 110.464844h80.113281l-73.980469 73.8125 26.390626 26.332032 73.980468-73.8125v81.382812l110.746094-112.679688v-79.195312l23.4375-23.382812v85.601562h37.324219v-122.84375l324.660156-323.925781v59.359375h37.328125v-122.933594zm0 0"
     id="path4530"
     style="stroke:#ffffe1;stroke-opacity:1;fill:#ffffff;fill-opacity:1" />
  <path
     d="m542.9375 313.949219h33.34375l-232.734375 232.207031h-72.835937v37.242188h35.503906l-22.746094 22.699218 26.394531 26.332032 22.792969-22.742188v27.503906h37.328125v-64.746094l232.6875-232.164062v36.132812h37.328125v-99.703124h-97.0625zm0 0"
     id="path4532"
     style="fill:#ffffff;fill-opacity:1" />
</svg>
