<svg height="512pt" viewBox="0 0 512.00043 512" width="512pt" xmlns="http://www.w3.org/2000/svg"><path d="m51.101562 439.667969-25.5 25.5c-5.699218 5.699219-5.699218 15.296875 0 21.300781 5.792969 5.214844 14.664063 5.972656 21.304688 0l25.496094-25.5-5.398438-15.902344zm0 0"/><path d="m340.207031 150.792969c-84.515625-78.425781-178.566406-97.796875-254.03125-50.253907-17.945312 11.265626-40.839843 8.789063-55.691406-6.09375l-4.878906-4.875c-5.859375-5.859374-15.351563-5.859374-21.210938 0-5.859375 5.855469-5.859375 15.351563 0 21.210938l4.878907 4.875c17.136718 17.140625 40.613281 24.195312 63.339843 20.917969l140.757813 140.757812-74.964844 75.035157 8.695312 3c4.503907 1.5 8.101563 5.097656 9.601563 9.601562l3 8.699219 74.964844-75.039063 140.753906 140.757813c-3.28125 22.726562 3.78125 46.207031 20.921875 63.355469l4.890625 4.878906c5.917969 5.886718 15.410156 5.800781 21.210937-.03125 5.847657-5.859375 5.832032-15.363282-.027343-21.210938l-4.878907-4.863281c-14.855468-14.867187-17.359374-37.777344-6.0625-55.691406 47.5-75.476563 28.140626-169.53125-50.265624-254.03125l.378906-.378907 65.300781-65.171874 13.5 40.800781c2.101563 6 7.800781 10.199219 14.402344 10.199219 6.296875 0 11.996093-4.199219 14.097656-10.199219l42.296875-127.203125c1.804688-5.398438.601562-11.398438-3.597656-15.296875-3.902344-4.199219-9.898438-5.699219-15.296875-3.601563l-127.203125 42.300782c-6 2.101562-10.199219 7.800781-10.199219 14.097656 0 6.601562 4.199219 12.304687 10.199219 14.402344l40.800781 13.5-65.304687 65.171874zm-236.554687-25.597657c62.679687-38.460937 142.199218-20.652343 215.367187 46.78125l-84.292969 84.292969zm283.164062 283.164063-131.089844-131.089844 84.292969-84.289062c67.429688 73.167969 85.246094 152.667969 46.796875 215.378906zm0 0"/><path d="m85.601562 501.769531c4.484376 11.949219 18.453126 12.859375 24.902344 5.699219l63.601563-63.601562c4.199219-3.898438 5.398437-9.902344 3.597656-15.300782l-18-54.898437-87.296875 87.300781zm0 0"/><path d="m83.503906 334.367188c-5.402344-1.800782-11.402344-.601563-15.300781 3.601562l-63.601563 63.597656c-3.898437 3.601563-5.398437 9.003906-4.199218 14.101563 1.203125 5.101562 5.101562 9 9.902344 10.800781l40.800781 13.199219 87.300781-87.296875zm0 0"/></svg>