<?xml version="1.0" encoding="iso-8859-1"?>
<!-- Generator: Adobe Illustrator 19.0.0, SVG Export Plug-In . SVG Version: 6.00 Build 0)  -->
<svg version="1.1" id="Capa_1" xmlns="http://www.w3.org/2000/svg" xmlns:xlink="http://www.w3.org/1999/xlink" x="0px" y="0px"
	 viewBox="0 0 512 512" style="enable-background:new 0 0 512 512;" xml:space="preserve">
<g>
	<g>
		<path d="M510.051,319.249c-3.685-14.314-18.317-22.942-32.683-19.271c-18.307,4.678-36.953-6.317-41.648-24.557l0.038-0.011
			c-17.505-77.243-83.877-136.021-165.043-142.411V99.246h24.052c5.332,0,10.263-2.83,12.952-7.435
			c2.689-4.604,2.732-10.289,0.113-14.934L268.779,7.632C266.12,2.917,261.127,0,255.714,0c-5.413,0-10.406,2.917-13.065,7.632
			l-39.051,69.246c-2.619,4.645-2.576,10.33,0.113,14.934c2.689,4.604,7.62,7.435,12.952,7.435h24.051v33.795
			c-80.906,6.621-147.007,65.306-164.471,142.368l0.037,0.011c-4.695,18.24-23.341,29.235-41.648,24.557
			c-14.366-3.671-28.999,4.957-32.683,19.271c-3.684,14.314,4.975,28.894,19.341,32.565c13.137,3.357,26.342,3.57,38.815,1.116
			c0.533,0.38,1.085,0.74,1.679,1.055l125.965,66.779V497c0,8.284,6.716,15,15,15h105.929c8.284,0,15-6.716,15-15v-76.237
			l125.964-66.779c0.639-0.339,1.23-0.73,1.799-1.144c12.606,2.549,25.972,2.371,39.268-1.027
			C505.076,348.143,513.735,333.563,510.051,319.249z M187.75,386.808l-92.704-49.146c15.884-11.563,27.99-28.48,33.258-48.948
			l0.001,0.013c7.567-35.312,29.518-65.311,59.445-83.63V386.808z M270.713,482h-30v-33.158l7.974,4.227
			c2.197,1.165,4.612,1.747,7.026,1.747s4.829-0.582,7.026-1.747l7.974-4.227V482z M270.714,414.887l-15,7.952l-15-7.952V177.739h30
			V414.887z M323.679,386.808V204.749c30.219,18.286,52.401,48.442,60.016,83.979l0.001-0.013
			c5.242,20.365,17.254,37.212,33.02,48.771L323.679,386.808z"/>
	</g>
</g>
<g>
</g>
<g>
</g>
<g>
</g>
<g>
</g>
<g>
</g>
<g>
</g>
<g>
</g>
<g>
</g>
<g>
</g>
<g>
</g>
<g>
</g>
<g>
</g>
<g>
</g>
<g>
</g>
<g>
</g>
</svg>
