<?xml version="1.0" encoding="UTF-8" standalone="no"?>
<svg
   xmlns:dc="http://purl.org/dc/elements/1.1/"
   xmlns:cc="http://creativecommons.org/ns#"
   xmlns:rdf="http://www.w3.org/1999/02/22-rdf-syntax-ns#"
   xmlns:svg="http://www.w3.org/2000/svg"
   xmlns="http://www.w3.org/2000/svg"
   xmlns:sodipodi="http://sodipodi.sourceforge.net/DTD/sodipodi-0.dtd"
   xmlns:inkscape="http://www.inkscape.org/namespaces/inkscape"
   height="512pt"
   viewBox="0 0 512 512"
   width="512pt"
   version="1.1"
   id="svg4570"
   sodipodi:docname="melee-white.svg"
   inkscape:version="0.92.3 (2405546, 2018-03-11)">
  <metadata
     id="metadata4576">
    <rdf:RDF>
      <cc:Work
         rdf:about="">
        <dc:format>image/svg+xml</dc:format>
        <dc:type
           rdf:resource="http://purl.org/dc/dcmitype/StillImage" />
        <dc:title></dc:title>
      </cc:Work>
    </rdf:RDF>
  </metadata>
  <defs
     id="defs4574" />
  <sodipodi:namedview
     pagecolor="#ffffff"
     bordercolor="#666666"
     borderopacity="1"
     objecttolerance="10"
     gridtolerance="10"
     guidetolerance="10"
     inkscape:pageopacity="0"
     inkscape:pageshadow="2"
     inkscape:window-width="1920"
     inkscape:window-height="1017"
     id="namedview4572"
     showgrid="false"
     inkscape:zoom="0.34570313"
     inkscape:cx="341.33333"
     inkscape:cy="341.33333"
     inkscape:window-x="-8"
     inkscape:window-y="-8"
     inkscape:window-maximized="1"
     inkscape:current-layer="svg4570" />
  <path
     d="m1.085938 449.496094 26.714843-26.714844 62.492188 62.496094-26.710938 26.710937zm0 0"
     id="path4560"
     style="fill:#ffffff;fill-opacity:1" />
  <path
     d="m172.550781 153.839844 2.296875-62.222656-174.847656-91.617188 89.011719 177.355469 62.324219-2.300781 26.019531 26.015624 21.214843-21.210937zm0 0"
     id="path4562"
     style="fill:#ffffff;fill-opacity:1" />
  <path
     d="m490.066406 114.808594 21.933594-114.808594-113.726562 23.015625-240.726563 240.730469 35.289063 35.289062 119.675781-119.675781 21.210937 21.214844-119.675781 119.671875 35.289063 35.292968zm0 0"
     id="path4564"
     style="fill:#ffffff;fill-opacity:1" />
  <path
     d="m311.90625 335.558594 179.035156 176.433594 21.054688-21.367188-178.878906-176.28125zm0 0"
     id="path4566"
     style="fill:#ffffff;fill-opacity:1" />
  <path
     d="m211.078125 454.894531c10.6875 0 20.738281-4.164062 28.292969-11.71875 15.601562-15.605469 15.601562-40.988281 0-56.589843l-112.875-112.875c-15.601563-15.605469-40.988282-15.605469-56.585938 0-7.558594 7.554687-11.722656 17.605468-11.722656 28.292968s4.164062 20.738282 11.722656 28.292969l25.1875 25.191406-46.078125 46.078125 62.496094 62.496094 46.078125-46.078125 25.191406 25.1875c7.554688 7.558594 17.605469 11.722656 28.292969 11.722656zm0 0"
     id="path4568"
     style="fill:#ffffff;fill-opacity:1" />
</svg>
