<?xml version="1.0" encoding="iso-8859-1"?>
<!-- Generator: Adobe Illustrator 16.0.0, SVG Export Plug-In . SVG Version: 6.00 Build 0)  -->
<!DOCTYPE svg PUBLIC "-//W3C//DTD SVG 1.1//EN" "http://www.w3.org/Graphics/SVG/1.1/DTD/svg11.dtd">
<svg version="1.1" id="Capa_1" xmlns="http://www.w3.org/2000/svg" xmlns:xlink="http://www.w3.org/1999/xlink" x="0px" y="0px"
	 width="239.756px" height="239.756px" viewBox="0 0 239.756 239.756" style="enable-background:new 0 0 239.756 239.756;"
	 xml:space="preserve">
<g>
	<path d="M239.171,77.87c-0.506-0.506-1.242-0.703-1.935-0.518l-26.226,7.023c-0.688,0.188-1.229,0.727-1.414,1.416
		c-0.187,0.691,0.013,1.429,0.521,1.934l2.521,2.521l-0.485,0.485c-9.328,9.327-23.439,11.593-35.127,5.893l20.996-20.995
		l2.521,2.521c0.004,0.008,0.01,0.012,0.014,0.016c0.783,0.781,2.05,0.781,2.832,0c0.324-0.326,0.515-0.735,0.568-1.157
		l6.961-25.979c0.185-0.692-0.013-1.429-0.521-1.934c-0.504-0.506-1.242-0.705-1.934-0.519l-26.225,7.024
		c-0.689,0.187-1.229,0.726-1.414,1.416c-0.187,0.691,0.011,1.427,0.518,1.935l2.521,2.52L162.87,82.467
		c-5.698-11.685-3.438-25.797,5.892-35.125l0.485-0.485l2.522,2.521c0.002,0.008,0.01,0.012,0.012,0.014
		c0.783,0.783,2.051,0.783,2.832,0c0.324-0.325,0.515-0.733,0.568-1.155l6.961-25.979c0.186-0.692-0.014-1.43-0.518-1.936
		c-0.508-0.506-1.243-0.703-1.936-0.518l-26.226,7.025c-0.688,0.186-1.229,0.724-1.415,1.414c-0.186,0.691,0.014,1.429,0.52,1.935
		l2.521,2.522l-0.486,0.485c-17.199,17.2-19.761,43.82-6.367,63.914l-12.562,12.341l-28.83-52.488
		c-0.106-0.182-0.229-0.35-0.344-0.525c-2.198-3.824-4.389-7.655-6.597-11.475c-1.501-2.603-4.463-8.887-9.76-8.575
		c-5.154,0.303-20.214,8.891-28.694,15.421C41.03,67.518,23.442,87.958,11.69,110.944c-8.254,16.144-13.867,34.642-10.875,52.891
		c2.024,12.268,11.15-7.224,12.14-9.092c4.014-7.578,8.288-15.031,13.045-22.17c16.517-24.781,38.68-41.078,67.69-48.041
		l23.481,43.087L40.88,202.565c-3.903,3.904-3.901,10.254,0,14.156c3.902,3.903,10.254,3.903,14.156,0l72.096-70.827l36.992,67.874
		c3.534,6.025,11.282,8.045,17.31,4.513c6.026-3.531,8.047-11.28,4.514-17.31l-40.262-73.304l16.705-16.414
		c20.096,13.393,46.715,10.833,63.913-6.369l0.486-0.485l2.522,2.522c0.504,0.506,1.241,0.704,1.933,0.519
		c0.692-0.186,1.229-0.724,1.417-1.415l7.023-26.225C239.874,79.11,239.677,78.376,239.171,77.87z"/>
</g>
<g>
</g>
<g>
</g>
<g>
</g>
<g>
</g>
<g>
</g>
<g>
</g>
<g>
</g>
<g>
</g>
<g>
</g>
<g>
</g>
<g>
</g>
<g>
</g>
<g>
</g>
<g>
</g>
<g>
</g>
</svg>
