<?xml version="1.0" encoding="iso-8859-1"?>
<!-- Generator: Adobe Illustrator 19.0.0, SVG Export Plug-In . SVG Version: 6.00 Build 0)  -->
<svg version="1.1" id="Capa_1" xmlns="http://www.w3.org/2000/svg" xmlns:xlink="http://www.w3.org/1999/xlink" x="0px" y="0px"
	 viewBox="0 0 496.704 496.704" style="enable-background:new 0 0 496.704 496.704;" xml:space="preserve">
<g>
	<g>
		<path d="M438.64,156.224c-0.28-0.304-0.48-0.648-0.768-0.944c-0.296-0.296-0.648-0.488-0.944-0.768
			c-36.144-35.712-85.776-57.808-140.48-57.808c-54.704,0-104.328,22.096-140.472,57.808c-0.304,0.28-0.656,0.48-0.944,0.776
			c-0.296,0.296-0.488,0.648-0.768,0.944C118.544,192.376,96.448,242,96.448,296.704c0,19.44,2.84,38.216,8.04,56H89.232
			l23.416-249.688L56.448,0L0.256,103.016l23.408,249.688H0.448v48h24v64c0,17.648,14.352,32,32,32s32-14.352,32-32v-64h24v-25.656
			c9.96,23.312,24.24,44.352,41.808,62.128c0.28,0.304,0.48,0.648,0.768,0.944c0.288,0.296,0.648,0.488,0.944,0.768
			c36.152,35.72,85.776,57.816,140.48,57.816s104.328-22.096,140.48-57.808c0.304-0.28,0.648-0.48,0.944-0.768
			c0.296-0.288,0.488-0.648,0.768-0.944c35.712-36.152,57.808-85.776,57.808-140.48C496.448,242,474.352,192.376,438.64,156.224z
			 M16.64,106.384L48.448,48.08v256.624h16V48.08l31.808,58.312L73.168,352.704h-8.72v-32h-16v32h-8.72L16.64,106.384z
			 M72.448,464.704c0,8.824-7.176,16-16,16s-16-7.176-16-16v-64h32V464.704z M96.448,384.704h-8h-64h-8v-16h8.72h62.56h8.72V384.704
			z M437.872,211.848c5.384-5.392,8.784-11.976,10.448-18.888c14.136,20.624,24.152,44.264,28.928,69.736
			c-6.08-3.728-13.16-5.992-20.8-5.992c-10.536,0-20.072,4.176-27.224,10.864c-3.496-15.944-9.824-30.816-18.384-44.144
			C420.664,223.12,430.392,219.328,437.872,211.848z M480.448,296.704c0,13.232-10.768,24-24,24s-24-10.768-24-24s10.768-24,24-24
			S480.448,283.472,480.448,296.704z M384.448,336.704v41.312c-9.184,9.928-19.952,18.352-32,24.744V190.656
			c12.048,6.392,22.816,14.808,32,24.744v105.304h16v-83.608c10.12,17.584,16,37.904,16,59.608c0,21.704-5.88,42.024-16,59.608
			v-19.608H384.448z M425.68,165.88c0.536,0.528,1.064,1.064,1.6,1.6c8.544,9.408,8.36,23.976-0.72,33.064
			c-9.352,9.344-24.576,9.352-33.944,0c-9.352-9.36-9.352-24.592,0-33.944c4.68-4.672,10.832-7.016,16.976-7.016
			C415.376,159.584,421.112,161.736,425.68,165.88z M330.448,115.904c25.472,4.784,49.112,14.792,69.736,28.928
			c-6.912,1.672-13.496,5.064-18.888,10.448c-7.48,7.48-11.272,17.208-11.576,27.032c-13.32-8.568-28.192-14.888-44.136-18.384
			c6.688-7.152,10.864-16.688,10.864-27.224C336.448,129.064,334.184,121.984,330.448,115.904z M336.448,183.704v226
			c-10.12,3.592-20.84,5.856-32,6.592V177.112C315.608,177.856,326.328,180.112,336.448,183.704z M296.448,112.704
			c13.232,0,24,10.768,24,24s-10.768,24-24,24s-24-10.768-24-24S283.216,112.704,296.448,112.704z M240.448,224.704v178.048
			c-12.048-6.392-22.816-14.808-32-24.744V215.392c9.184-9.928,19.952-18.352,32-24.744v18.056h16v-25
			c10.12-3.592,20.84-5.856,32-6.592v239.192c-11.16-0.744-21.88-3-32-6.592V224.704H240.448z M262.448,115.904
			c-3.736,6.08-6,13.16-6,20.8c0,10.536,4.176,20.072,10.864,27.224c-15.944,3.496-30.816,9.824-44.136,18.384
			c-0.304-9.824-4.096-19.552-11.576-27.032c-5.392-5.384-11.976-8.784-18.888-10.448
			C213.336,130.696,236.976,120.68,262.448,115.904z M165.624,167.472c0.528-0.528,1.056-1.064,1.6-1.6
			c4.56-4.144,10.304-6.296,16.088-6.296c6.152,0,12.296,2.336,16.976,7.016c9.352,9.352,9.352,24.584,0,33.944
			c-9.352,9.344-24.576,9.352-33.944,0C157.264,191.448,157.08,176.88,165.624,167.472z M192.448,237.096V356.32
			c-10.12-17.584-16-37.904-16-59.608C176.448,275.008,182.328,254.68,192.448,237.096z M144.576,192.968
			c1.672,6.912,5.064,13.496,10.448,18.888c7.48,7.48,17.208,11.272,27.032,11.576c-8.568,13.32-14.888,28.192-18.384,44.136
			c-7.152-6.688-16.688-10.864-27.224-10.864c-7.64,0-14.72,2.264-20.8,6C120.432,237.232,130.448,213.592,144.576,192.968z
			 M136.448,272.704c13.232,0,24,10.768,24,24s-10.768,24-24,24s-24-10.768-24-24S123.216,272.704,136.448,272.704z
			 M155.024,381.552c-5.384,5.392-8.784,11.976-10.448,18.888c-14.136-20.624-24.152-44.264-28.928-69.736
			c6.08,3.736,13.16,6,20.8,6c10.536,0,20.072-4.176,27.224-10.864c3.496,15.944,9.824,30.816,18.384,44.136
			C172.232,370.28,162.496,374.072,155.024,381.552z M167.216,427.528c-0.536-0.528-1.064-1.064-1.6-1.6
			c-8.544-9.408-8.36-23.976,0.72-33.064c9.352-9.344,24.576-9.352,33.944,0c9.352,9.36,9.352,24.592,0,33.944
			C191.2,435.88,176.632,436.08,167.216,427.528z M262.448,477.504c-25.472-4.784-49.112-14.792-69.736-28.928
			c6.912-1.672,13.496-5.064,18.888-10.448c7.48-7.48,11.272-17.208,11.576-27.032c13.32,8.568,28.192,14.888,44.136,18.384
			c-6.688,7.152-10.864,16.688-10.864,27.224C256.448,464.344,258.712,471.424,262.448,477.504z M296.448,480.704
			c-13.232,0-24-10.768-24-24s10.768-24,24-24s24,10.768,24,24S309.68,480.704,296.448,480.704z M330.448,477.504
			c3.736-6.08,6-13.16,6-20.8c0-10.536-4.176-20.072-10.864-27.224c15.944-3.496,30.816-9.824,44.136-18.384
			c0.304,9.824,4.096,19.552,11.576,27.032c5.384,5.384,11.976,8.784,18.888,10.448C379.56,462.712,355.92,472.728,330.448,477.504z
			 M427.28,425.928c-0.536,0.536-1.064,1.072-1.6,1.6c-9.416,8.552-23.984,8.36-33.064-0.72c-9.352-9.352-9.352-24.584,0-33.944
			c9.352-9.344,24.576-9.352,33.944,0C435.64,401.952,435.824,416.52,427.28,425.928z M448.32,400.44
			c-1.672-6.912-5.064-13.496-10.448-18.888c-7.48-7.48-17.216-11.272-27.032-11.576c8.568-13.32,14.888-28.192,18.384-44.144
			c7.152,6.696,16.688,10.872,27.224,10.872c7.64,0,14.72-2.264,20.8-6C472.464,356.176,462.448,379.816,448.32,400.44z"/>
	</g>
</g>
<g>
</g>
<g>
</g>
<g>
</g>
<g>
</g>
<g>
</g>
<g>
</g>
<g>
</g>
<g>
</g>
<g>
</g>
<g>
</g>
<g>
</g>
<g>
</g>
<g>
</g>
<g>
</g>
<g>
</g>
</svg>
